<svg xmlns="http://www.w3.org/2000/svg" viewBox="0 0 520 260" width="520" height="260">
<defs><style>text { font-family: 'JetBrains Mono', 'Fira Code', 'SF Mono', Menlo, monospace; }</style></defs>
<clipPath id="clip"><rect width="520" height="260" rx="8"/></clipPath>
<rect width="520" height="260" rx="8" fill="#1a1a2e" clip-path="url(#clip)"/>
<text x="32" y="30" text-anchor="end" font-size="12" fill="#666666" opacity="0.5">1</text><text x="44" y="30" font-size="12" fill="#00cc00">/* A style for yed */</text>
<text x="32" y="48" text-anchor="end" font-size="12" fill="#666666" opacity="0.5">2</text><text x="44" y="48" font-size="12" fill="#0000cc">#include</text><text x="101.6" y="48" font-size="12" fill="#cccccc"> &lt;stdio.h&gt;</text>
<text x="32" y="66" text-anchor="end" font-size="12" fill="#666666" opacity="0.5">3</text>
<text x="32" y="84" text-anchor="end" font-size="12" fill="#666666" opacity="0.5">4</text><text x="44" y="84" font-size="12" fill="#0000cc">int</text><text x="65.6" y="84" font-size="12" fill="#cccccc"> </text><text x="72.8" y="84" font-size="12" fill="#cccccc">main</text><text x="101.6" y="84" font-size="12" fill="#cccccc">(</text><text x="108.8" y="84" font-size="12" fill="#0000cc">void</text><text x="137.6" y="84" font-size="12" fill="#cccccc">)</text><text x="144.79999999999998" y="84" font-size="12" fill="#cccccc"> {</text>
<text x="32" y="102" text-anchor="end" font-size="12" fill="#666666" opacity="0.5">5</text><text x="44" y="102" font-size="12" fill="#cccccc">    </text><text x="72.8" y="102" font-size="12" fill="#0000cc">char</text><text x="101.6" y="102" font-size="12" fill="#cccccc"> *s = </text><text x="144.8" y="102" font-size="12" fill="#cc00cc">&quot;hello&quot;</text><text x="195.20000000000002" y="102" font-size="12" fill="#cccccc">;</text>
<text x="32" y="120" text-anchor="end" font-size="12" fill="#666666" opacity="0.5">6</text><text x="44" y="120" font-size="12" fill="#cccccc">    </text><text x="72.8" y="120" font-size="12" fill="#0000cc">int</text><text x="94.4" y="120" font-size="12" fill="#cccccc"> n = </text><text x="130.4" y="120" font-size="12" fill="#cc00cc">42</text><text x="144.8" y="120" font-size="12" fill="#cccccc">;</text>
<text x="32" y="138" text-anchor="end" font-size="12" fill="#666666" opacity="0.5">7</text><text x="44" y="138" font-size="12" fill="#cccccc">    </text><text x="72.8" y="138" font-size="12" fill="#cccccc">printf</text><text x="116" y="138" font-size="12" fill="#cccccc">(s);</text>
<text x="32" y="156" text-anchor="end" font-size="12" fill="#666666" opacity="0.5">8</text><text x="44" y="156" font-size="12" fill="#cccccc">    </text><text x="72.8" y="156" font-size="12" fill="#0000cc">return</text><text x="116" y="156" font-size="12" fill="#cccccc"> </text><text x="123.2" y="156" font-size="12" fill="#cc00cc">0</text><text x="130.4" y="156" font-size="12" fill="#cccccc">;</text>
<text x="32" y="174" text-anchor="end" font-size="12" fill="#666666" opacity="0.5">9</text><text x="44" y="174" font-size="12" fill="#cccccc">}</text>
<line x1="36" y1="0" x2="36" y2="238" stroke="#666666" opacity="0.15"/>




<g clip-path="url(#clip)">
<rect y="238" width="520" height="22" fill="#cccccc"/>
<text x="10" y="253" font-size="12" fill="#1a1a2e" font-weight="bold"> vt</text>
<text x="510" y="253" font-size="12" fill="#1a1a2e" text-anchor="end">yed</text>
</g>
</svg>